# xmcd
#
# Track frame offsets:
#	150
#	14456
#	33569
#	64118
#	82288
#	107436
#	129215
#	144903
#	159966
#	187910
#	208927
#	225206
#
# Disc length: 3316
#
# Revision: 1
# Processed by: cddbd v1.5.1PL0 Copyright (c) Steve Scherf et al.
# Submitted via: CDex 1.50
# Normalized: r0:TDELIM( - )
#
DISCID=930cf20c
DTITLE=Various Artist - Cool Jazz for hot nights
DYEAR=1900
DGENRE=Jazz
TTITLE0=Irene Kral - I like you, you're nice
TTITLE1=Ruby Braff - I've got a crush on you
TTITLE2=Chet baker - Time after time
TTITLE3=Seldon powell - Blue and sentimental
TTITLE4=Stacey Kent - More than you know
TTITLE5=Chamber jazz sextet - Bewitched, bothered and bewildered
TTITLE6=Buddy childers and russ garcia strings - Come home again
TTITLE7=Buddy greco - Gee baby, ain't I good to you
TTITLE8=Flip Phillips - Love story
TTITLE9=Carol Slone - Baby don't you quit now
TTITLE10=Dizzy Gillespie - They can't take that away from me
TTITLE11=Nancy Harrow - Can't we be friends
EXTD=
EXTT0=
EXTT1=
EXTT2=
EXTT3=
EXTT4=
EXTT5=
EXTT6=
EXTT7=
EXTT8=
EXTT9=
EXTT10=
EXTT11=
PLAYORDER=
